<?xml version="1.0" encoding="utf-8"?>
<!-- Generator: Adobe Illustrator 19.2.1, SVG Export Plug-In . SVG Version: 6.00 Build 0)  -->
<svg version="1.1" id="layer" xmlns="http://www.w3.org/2000/svg" xmlns:xlink="http://www.w3.org/1999/xlink" x="0px" y="0px"
	 viewBox="0 0 652 652" style="enable-background:new 0 0 652 652;" xml:space="preserve">
<style type="text/css">
	.st0{fill:#B31F24;}
	.st1{fill:#431512;}
</style>
<g>
	<path class="st0" d="M197.3,314.9c14.2-5.8,19.5-13.6,19.5-23.2c0-16.8-14.7-24.3-38.7-24.3h-43c2.7,4.1,5.3,8.5,5.3,15.2V316
		c-12.6,2.5-24,4.7-34.7,7.2c-9.6-26.4-20.2-55.8-20.2-55.8H58.7c0.4,3.7,0.1,7.6-1.9,12.9l-29.9,83.4c0,0-2,5.9-6.1,11.2h21.9
		c-0.4-2.9,0.1-6.7,0.9-9c2.2-6.6,8.2-10.9,14.5-13.7c8.2-3.7,22.5-8.2,29.3-10.2l7.1,20.4c0,0,2.9,7.7,1.3,12.6h30.9
		c-4.7-6.3-6.3-11-6.3-11.2c-0.7-2-4.8-13.2-10-27.5c9.4-2.3,19.3-4.2,29.9-6.3v29.6c0,5.7-2.3,10.7-5.3,15.2h40.9
		c6.7,0,12.6-0.4,17.1-1.2c17.5-3.1,30.1-12,30.1-31.1C223.2,328.1,213.4,319.3,197.3,314.9 M59.2,337.1c-2.6,1.2-5.9,3.3-7.8,5.2
		c5.9-17.2,14-40.8,17.9-52l13.5,38.5C76,330.8,65.5,334.1,59.2,337.1z M164.2,280.9c4.2-0.2,5.8-0.2,8.5-0.2
		c13.2,0,19.3,5.5,19.3,13.3c0,7.4-4.9,12-13.1,14.5c-3.4,1-9.1,2.2-14.8,3.2C164.2,311.6,164.2,280.9,164.2,280.9z M174.2,361.6
		h-9.9v-35.8c3.7-0.9,9.6-1.9,13.4-2.3c11.9,2.8,20.7,7.7,20.7,19.8C198.3,357.4,188,361.6,174.2,361.6"/>
	<g>
		<path class="st1" d="M234.3,375c5.3-7.9,5.3-15.1,5.3-15.2v-77c0-0.1,0-7.2-5.3-15.2h34.5c-5.3,8-5.3,15.1-5.3,15.2v77
			c0,0.1,0,7.3,5.3,15.2H234.3z"/>
		<path class="st1" d="M620.8,299.3h-23.1c2,3.2,1.2,8.3-0.9,13.4l-15,39.9l-15.5-39.9c-2.1-5.2-2.8-10.2-0.9-13.4h-29.9
			c4.1,4.4,6.7,9.9,8.2,13.4l25.7,62.3h20c0,0,0.5-5.1,2.8-10.8l0,0l20.7-51.5C614.3,309.2,617.3,303,620.8,299.3"/>
		<path class="st1" d="M538.7,339.3c1.5-15.8-2.9-43.4-37.8-43.4c-28.5,0-39,19.9-39,39.3c0,24.7,13.4,41.6,45.6,41.6
			c13.1,0,23.6-3.9,29.9-7.7l-6.4-14.2c-6.1,3.1-13.5,5.8-21.8,5.8c-14.4,0-23.2-5-25.1-19.3h31
			C526.4,341.5,535.7,340.8,538.7,339.3 M484,328.4c1.4-12.2,6.9-18.4,16.8-18.4c10.3,0,15.4,8,15.8,18.3c0,0-4.5,0.1-10.4,0.1H484z
			"/>
		<path class="st1" d="M327.9,375h30.6c-4.7-7-4.7-13.4-4.7-13.4v-40.4c0-14.5-7.8-23.4-24.2-23.4c-10.5,0-19.1,4.7-25.5,10.5v-9
			h-26c4.7,7.1,4.7,13.4,4.7,13.4v48.8c0,0.1,0,6.4-4.7,13.4h30.7c-4.7-7-4.7-13.4-4.7-13.4v-40.4c3.9-4,9.5-7,15.6-7
			c9.4,0,12.8,5.2,12.8,13.3v34C332.5,361.6,332.5,367.9,327.9,375"/>
		<path class="st1" d="M407.2,324.2c15.1,0,23.4,7.4,23.4,19.3c0,10.7-6.4,18.5-23.7,18.5h-10.4v-37.7
			C396.5,324.2,407.2,324.2,407.2,324.2z M404.9,280.5c13.2,0,19.3,5.2,19.3,14.8c0,9.6-5.5,15.4-18.2,15.4c-2.5,0-6.9,0.1-9.6,0
			v-30.2H404.9z M407.7,375c6.7,0,12.9-0.4,17.4-1.2c17.2-3,30-11.8,30-30.9c0-15.3-9.8-23.2-25.1-27.6
			c13.7-5.2,18.3-12.7,18.3-22.4c0-16.8-13.7-25.4-38.3-25.4h-41.2c2.9,4.4,3.9,10.7,3.9,15.2v77c0,5-0.9,10.3-3.9,15.2H407.7z"/>
	</g>
</g>
</svg>
